<svg width="150" height="150" viewBox="0 0 150 150" fill="none" xmlns="http://www.w3.org/2000/svg">
<g clip-path="url(#clip0_202_14)">
<path d="M129.717 54.6489C127.522 54.6489 125.391 54.9899 123.353 55.6651C119.646 42.2985 107.439 32.8684 93.315 32.8684C79.3652 32.8684 67.1058 42.2795 63.3408 55.5278C61.1909 55.0555 58.969 54.7818 56.6824 54.7818C42.5606 54.7818 30.3565 64.2093 26.6487 77.5783C24.6115 76.9009 22.4808 76.5597 20.2856 76.5597C9.10031 76.5597 0 85.6579 0 96.8432C0 108.031 9.10031 117.131 20.2856 117.131H88.1972C97.5586 117.131 105.173 109.514 105.173 100.153C105.173 98.4343 104.909 96.779 104.432 95.2159H129.717C140.902 95.2159 150 86.1179 150 74.9324C150 63.7469 140.902 54.6489 129.717 54.6489ZM88.1972 112.444H20.2856C11.6843 112.444 4.6875 105.445 4.6875 96.8432C4.6875 88.2442 11.6843 81.2472 20.2856 81.2472C22.7416 81.2472 25.0877 81.8012 27.262 82.8953C27.9213 83.2272 28.6971 83.2272 29.3609 82.8974C30.0223 82.5679 30.4894 81.9454 30.622 81.2174C32.8995 68.6153 43.8605 59.4693 56.6824 59.4693C71.1959 59.4693 83.0794 71.2726 83.1687 85.7814C83.1734 86.4749 83.4846 87.1318 84.0178 87.5736C84.5534 88.0152 85.2607 88.1961 85.9383 88.0726C86.689 87.9353 87.4488 87.8643 88.1972 87.8643C94.9723 87.8643 100.486 93.3779 100.486 100.153C100.486 106.93 94.9723 112.444 88.1972 112.444ZM129.717 90.5284H102.17C99.0251 85.9846 93.7162 83.0434 87.735 83.1836C86.666 71.1484 78.6907 61.0555 67.8342 56.8672C71.01 45.5797 81.4406 37.5559 93.315 37.5559C106.139 37.5559 117.103 46.7022 119.38 59.3043C119.513 60.0322 119.98 60.6547 120.639 60.9843C121.298 61.314 122.079 61.3161 122.738 60.9822C124.914 59.8902 127.263 59.3364 129.717 59.3364C138.315 59.3364 145.312 66.3334 145.312 74.9324C145.312 83.5316 138.315 90.5284 129.717 90.5284Z" fill="black" stroke="black" stroke-width="1.65"/>
</g>
<defs>
<clipPath id="clip0_202_14">
<rect width="150" height="150" fill="white"/>
</clipPath>
</defs>
</svg>
