<svg width="110" height="110" viewBox="0 0 110 110" fill="none" xmlns="http://www.w3.org/2000/svg">
<g clip-path="url(#clip0_202_19)">
<path d="M54.9998 79.3006C68.4206 79.3006 79.3004 68.4209 79.3004 55C79.3004 41.5792 68.4206 30.6995 54.9998 30.6995C41.579 30.6995 30.6992 41.5792 30.6992 55C30.6992 68.4209 41.579 79.3006 54.9998 79.3006Z" fill="black"/>
<path d="M54.9996 83.2746C39.4094 83.2746 26.7256 70.5908 26.7256 55.0006C26.7256 39.4104 39.4094 26.7266 54.9996 26.7266C70.5899 26.7266 83.2736 39.4104 83.2736 55.0006C83.2736 70.5908 70.5899 83.2746 54.9996 83.2746ZM54.9996 34.6729C43.7913 34.6729 34.6725 43.7917 34.6725 55.0001C34.6725 66.2084 43.7913 75.3272 54.9996 75.3272C66.2079 75.3272 75.3267 66.2084 75.3267 55.0001C75.3267 43.7917 66.2079 34.6729 54.9996 34.6729Z" fill="black"/>
<path d="M54.9998 20.8659C52.8054 20.8659 51.0264 19.0869 51.0264 16.8925V3.97345C51.0264 1.77905 52.8054 0 54.9998 0C57.1942 0 58.9733 1.77905 58.9733 3.97345V16.8925C58.9733 19.0869 57.1942 20.8659 54.9998 20.8659Z" fill="black"/>
<path d="M54.9998 110C52.8054 110 51.0264 108.221 51.0264 106.027V93.1075C51.0264 90.9131 52.8054 89.134 54.9998 89.134C57.1942 89.134 58.9733 90.9131 58.9733 93.1075V106.027C58.9733 108.221 57.1942 110 54.9998 110Z" fill="black"/>
<path d="M106.026 58.9735H93.1072C90.9128 58.9735 89.1338 57.1945 89.1338 55.0001C89.1338 52.8057 90.9128 51.0266 93.1072 51.0266H106.026C108.221 51.0266 110 52.8057 110 55.0001C110 57.1945 108.221 58.9735 106.026 58.9735Z" fill="black"/>
<path d="M16.8925 58.9735H3.97345C1.77905 58.9735 0 57.1945 0 55.0001C0 52.8057 1.77905 51.0266 3.97345 51.0266H16.8925C19.0869 51.0266 20.8659 52.8057 20.8659 55.0001C20.8659 57.1945 19.0869 58.9735 16.8925 58.9735Z" fill="black"/>
<path d="M81.946 32.027C80.9293 32.027 79.9121 31.6392 79.1365 30.863C77.5847 29.3113 77.5847 26.7953 79.1365 25.244L88.2717 16.1093C89.8235 14.5576 92.3395 14.557 93.8907 16.1093C95.4425 17.6611 95.4425 20.1771 93.8907 21.7283L84.7555 30.863C83.9799 31.6392 82.9626 32.027 81.946 32.027Z" fill="black"/>
<path d="M18.9186 95.0552C17.902 95.0552 16.8848 94.6673 16.1091 93.8912C14.5574 92.3394 14.5574 89.8234 16.1091 88.2722L25.2444 79.137C26.7961 77.5852 29.3121 77.5852 30.8634 79.137C32.4151 80.6887 32.4151 83.2047 30.8634 84.756L21.7281 93.8912C20.9525 94.6673 19.9358 95.0552 18.9186 95.0552Z" fill="black"/>
<path d="M91.0812 95.0552C90.0645 95.0552 89.0473 94.6673 88.2717 93.8912L79.1365 84.756C77.5847 83.2042 77.5847 80.6882 79.1365 79.137C80.6882 77.5852 83.2042 77.5852 84.7555 79.137L93.8907 88.2722C95.4425 89.824 95.4425 92.34 93.8907 93.8912C93.1151 94.6673 92.0984 95.0552 91.0812 95.0552Z" fill="black"/>
<path d="M23.1086 29.0817C22.0919 29.0817 21.0747 28.6939 20.2991 27.9177L11.1638 18.783C9.61206 17.2312 9.61206 14.7158 11.1638 13.164C12.7156 11.6123 15.2316 11.6117 16.7828 13.164L25.918 22.2987C27.4698 23.8505 27.4698 26.366 25.918 27.9177C25.1424 28.6939 24.1258 29.0817 23.1086 29.0817Z" fill="black"/>
</g>
<defs>
<clipPath id="clip0_202_19">
<rect width="110" height="110" fill="white"/>
</clipPath>
</defs>
</svg>
